<svg xmlns="http://www.w3.org/2000/svg" width="28" height="56" viewBox="0 0 28 56">
  <g id="Account_details" data-name="Account details" transform="translate(3212 -11822)">
    <rect id="Rectangle_2977" data-name="Rectangle 2977" width="28" height="28" transform="translate(-3212 11822)" fill="none"/>
    <rect id="Rectangle_2978" data-name="Rectangle 2978" width="28" height="28" transform="translate(-3212 11850)" fill="none"/>
    <g id="user" transform="translate(-3206.999 11827.001)">
      <g id="Group_6101" data-name="Group 6101">
        <path id="Path_626" data-name="Path 626" d="M9,0A8.994,8.994,0,0,0,2.062,14.725s0,.01.007.014a9,9,0,0,0,3.4,2.536l.045.019c.105.044.212.085.319.126l.127.047q.138.049.278.094l.18.056q.124.037.249.071c.073.02.147.038.221.056s.15.036.225.052.169.034.254.049c.068.013.136.026.205.037.094.015.19.027.285.04.061.008.123.017.184.023.108.011.217.019.326.027.051,0,.1.009.152.012Q8.755,18,9,18c.162,0,.323,0,.483-.013.051,0,.1-.008.152-.012.109-.008.218-.016.326-.027.062-.007.123-.016.184-.023.1-.012.19-.024.285-.04.069-.011.137-.024.205-.037.085-.016.17-.031.254-.049s.15-.034.225-.052.148-.036.221-.056.166-.046.249-.071l.18-.056q.14-.045.278-.094l.127-.047c.107-.04.213-.082.319-.126l.045-.019a9,9,0,0,0,3.4-2.536s0-.01.007-.014A9,9,0,0,0,9,0Zm3.647,16.564-.013.007c-.107.052-.216.1-.326.148l-.074.032q-.144.06-.291.115l-.123.045c-.087.031-.174.061-.262.089l-.164.05c-.078.023-.156.046-.235.067s-.134.034-.2.05-.141.034-.212.049-.156.031-.234.045-.126.024-.19.034c-.088.014-.177.025-.265.036-.056.007-.112.016-.169.022-.1.011-.2.018-.3.025-.045,0-.09.008-.136.01Q9.223,17.4,9,17.4t-.446-.012c-.046,0-.091-.007-.136-.01-.1-.007-.2-.014-.3-.025-.057-.006-.112-.014-.169-.022-.088-.011-.177-.022-.265-.036-.064-.01-.127-.022-.19-.034s-.157-.028-.234-.045-.142-.032-.212-.049-.134-.032-.2-.05-.157-.044-.235-.067L6.441,17q-.132-.042-.262-.089l-.123-.045q-.147-.055-.291-.115l-.074-.031c-.11-.047-.219-.1-.326-.148l-.013-.007a8.44,8.44,0,0,1-2.721-2.1A6.621,6.621,0,0,1,6.964,9.925c.042.025.085.048.128.072l.076.043c.089.047.18.092.273.132.071.031.145.058.218.085l.043.016a3.828,3.828,0,0,0,2.594,0l.043-.016c.073-.027.147-.053.218-.085.093-.04.183-.084.273-.132L10.905,10c.043-.024.087-.047.129-.073a6.623,6.623,0,0,1,4.333,4.541A8.448,8.448,0,0,1,12.646,16.564ZM5.7,6.6a3.3,3.3,0,1,1,5.095,2.765,3.177,3.177,0,0,1-.367.205l-.045.022a3.375,3.375,0,0,1-2.766,0L7.571,9.57A3.153,3.153,0,0,1,7.2,9.364,3.3,3.3,0,0,1,5.7,6.6Zm10.118,7.3a7.228,7.228,0,0,0-4.214-4.4,3.9,3.9,0,1,0-5.208,0,7.228,7.228,0,0,0-4.214,4.4A8.4,8.4,0,1,1,17.4,9,8.352,8.352,0,0,1,15.817,13.9Z" fill="#fff"/>
      </g>
    </g>
    <g id="user-2" data-name="user" transform="translate(-3207 11855.001)">
      <g id="Group_6101-2" data-name="Group 6101">
        <path id="Path_626-2" data-name="Path 626" d="M9,0A8.994,8.994,0,0,0,2.062,14.725s0,.01.007.014a9,9,0,0,0,3.4,2.536l.045.019c.105.044.212.085.319.126l.127.047q.138.049.278.094l.18.056q.124.037.249.071c.073.02.147.038.221.056s.15.036.225.052.169.034.254.049c.068.013.136.026.205.037.094.015.19.027.285.04.061.008.123.017.184.023.108.011.217.019.326.027.051,0,.1.009.152.012Q8.755,18,9,18c.162,0,.323,0,.483-.013.051,0,.1-.008.152-.012.109-.008.218-.016.326-.027.062-.007.123-.016.184-.023.1-.012.19-.024.285-.04.069-.011.137-.024.205-.037.085-.016.17-.031.254-.049s.15-.034.225-.052.148-.036.221-.056.166-.046.249-.071l.18-.056q.14-.045.278-.094l.127-.047c.107-.04.213-.082.319-.126l.045-.019a9,9,0,0,0,3.4-2.536s0-.01.007-.014A9,9,0,0,0,9,0Zm3.647,16.564-.013.007c-.107.052-.216.1-.326.148l-.074.032q-.144.06-.291.115l-.123.045c-.087.031-.174.061-.262.089l-.164.05c-.078.023-.156.046-.235.067s-.134.034-.2.05-.141.034-.212.049-.156.031-.234.045-.126.024-.19.034c-.088.014-.177.025-.265.036-.056.007-.112.016-.169.022-.1.011-.2.018-.3.025-.045,0-.09.008-.136.01Q9.223,17.4,9,17.4t-.446-.012c-.046,0-.091-.007-.136-.01-.1-.007-.2-.014-.3-.025-.057-.006-.112-.014-.169-.022-.088-.011-.177-.022-.265-.036-.064-.01-.127-.022-.19-.034s-.157-.028-.234-.045-.142-.032-.212-.049-.134-.032-.2-.05-.157-.044-.235-.067L6.441,17q-.132-.042-.262-.089l-.123-.045q-.147-.055-.291-.115l-.074-.031c-.11-.047-.219-.1-.326-.148l-.013-.007a8.44,8.44,0,0,1-2.721-2.1A6.621,6.621,0,0,1,6.964,9.925c.042.025.085.048.128.072l.076.043c.089.047.18.092.273.132.071.031.145.058.218.085l.043.016a3.828,3.828,0,0,0,2.594,0l.043-.016c.073-.027.147-.053.218-.085.093-.04.183-.084.273-.132L10.905,10c.043-.024.087-.047.129-.073a6.623,6.623,0,0,1,4.333,4.541A8.448,8.448,0,0,1,12.646,16.564ZM5.7,6.6a3.3,3.3,0,1,1,5.095,2.765,3.177,3.177,0,0,1-.367.205l-.045.022a3.375,3.375,0,0,1-2.766,0L7.571,9.57A3.153,3.153,0,0,1,7.2,9.364,3.3,3.3,0,0,1,5.7,6.6Zm10.118,7.3a7.228,7.228,0,0,0-4.214-4.4,3.9,3.9,0,1,0-5.208,0,7.228,7.228,0,0,0-4.214,4.4A8.4,8.4,0,1,1,17.4,9,8.352,8.352,0,0,1,15.817,13.9Z" fill="#3b3b3b"/>
      </g>
    </g>
  </g>
</svg>
