<svg xmlns="http://www.w3.org/2000/svg" width="28" height="56" viewBox="0 0 28 56">
  <g id="Addresses" transform="translate(3260 -11822)">
    <rect id="Rectangle_2977" data-name="Rectangle 2977" width="28" height="28" transform="translate(-3260 11822)" fill="none"/>
    <rect id="Rectangle_2978" data-name="Rectangle 2978" width="28" height="28" transform="translate(-3260 11850)" fill="none"/>
    <g id="outline" transform="translate(-3317.988 11811)">
      <path id="Path_622" data-name="Path 622" d="M217.527,104.611a.305.305,0,0,0,0-.611,1.527,1.527,0,0,0,0,3.054.305.305,0,0,0,0-.611.916.916,0,0,1,0-1.832Z" transform="translate(-146.324 -84.712)" fill="#fff"/>
      <path id="Path_623" data-name="Path 623" d="M362.443,408h-2.138a.305.305,0,0,0-.305.305v1.527a.305.305,0,0,0,.305.305h2.138a.305.305,0,0,0,.305-.305v-1.527A.305.305,0,0,0,362.443,408Zm-.305,1.527h-1.527v-.916h1.527Z" transform="translate(-284.994 -377.359)" fill="#fff"/>
      <path id="Path_624" data-name="Path 624" d="M182.107,67.054a3.054,3.054,0,1,0-3.054,3.054A3.054,3.054,0,0,0,182.107,67.054ZM179.054,69.5a2.443,2.443,0,1,1,2.443-2.443A2.443,2.443,0,0,1,179.054,69.5Z" transform="translate(-107.856 -46.168)" fill="#fff"/>
      <path id="Path_625" data-name="Path 625" d="M79.889,33.4h-.9s0-3.616,0-3.624a.209.209,0,0,0-.049-.142l-2.407-3.311a.3.3,0,0,0-.243-.124H73.466l1.157-1.466A6.376,6.376,0,0,0,75.989,20.8a4.8,4.8,0,0,0-9.6,0,6.376,6.376,0,0,0,1.366,3.934l2.63,3.331-1.245,1.868a.3.3,0,0,0-.05.166v3.3h-1.5v-.638a1.2,1.2,0,0,0,.9-1.162V29.8a1.2,1.2,0,1,0-2.4,0v.126a1.5,1.5,0,1,0-.9,2.844v.63h-.6a.3.3,0,1,0,0,.6h15.3a.3.3,0,1,0,0-.6Zm-5.4,0V30.1h3.9v3.3Zm.147-6.6.873,1.2H74.75l-.873-1.2Zm1.205,2.7-.655-.9h.758l.655.9Zm1.5,0-.655-.9h.758l.655.9Zm-4.205-2.7.873,1.2h-.72l-.036,0-.874-1.2Zm1.309,1.8.655.9h-.758l-.655-.9Zm2.564-.6H76.25l-.873-1.2h.758Zm-8.783-3.638A5.773,5.773,0,0,1,66.989,20.8a4.2,4.2,0,1,1,8.4,0,5.773,5.773,0,0,1-1.237,3.562L72.717,26.18l-.014.02h-.922a.548.548,0,0,0-.242.133l-.8,1.207Zm1.463,5.828L71,28.221v0l.8-1.194L73.889,29.9v3.5h-.9V30.7a1.2,1.2,0,0,0-2.4,0v2.7h-.9Zm1.5,3.209V30.7a.6.6,0,1,1,1.2,0v2.7Zm-4.5-3.6a.6.6,0,1,1,1.2,0v1.8a.6.6,0,0,1-1.064.38,1.5,1.5,0,0,0-.14-1.583.3.3,0,0,0,0-.042Zm-2.1,1.5a.9.9,0,1,1,.9.9A.9.9,0,0,1,64.589,31.3Zm1.2,1.47a1.5,1.5,0,0,0,.658-.316,1.211,1.211,0,0,0,.542.307V33.4h-1.2Z" fill="#fff"/>
    </g>
    <g id="outline-2" data-name="outline" transform="translate(-3317.988 11839)">
      <path id="Path_622-2" data-name="Path 622" d="M217.527,104.611a.305.305,0,0,0,0-.611,1.527,1.527,0,0,0,0,3.054.305.305,0,0,0,0-.611.916.916,0,0,1,0-1.832Z" transform="translate(-146.324 -84.712)" fill="#3b3b3b"/>
      <path id="Path_623-2" data-name="Path 623" d="M362.443,408h-2.138a.305.305,0,0,0-.305.305v1.527a.305.305,0,0,0,.305.305h2.138a.305.305,0,0,0,.305-.305v-1.527A.305.305,0,0,0,362.443,408Zm-.305,1.527h-1.527v-.916h1.527Z" transform="translate(-284.994 -377.359)" fill="#3b3b3b"/>
      <path id="Path_624-2" data-name="Path 624" d="M182.107,67.054a3.054,3.054,0,1,0-3.054,3.054A3.054,3.054,0,0,0,182.107,67.054ZM179.054,69.5a2.443,2.443,0,1,1,2.443-2.443A2.443,2.443,0,0,1,179.054,69.5Z" transform="translate(-107.856 -46.168)" fill="#3b3b3b"/>
      <path id="Path_625-2" data-name="Path 625" d="M79.889,33.4h-.9s0-3.616,0-3.624a.209.209,0,0,0-.049-.142l-2.407-3.311a.3.3,0,0,0-.243-.124H73.466l1.157-1.466A6.376,6.376,0,0,0,75.989,20.8a4.8,4.8,0,0,0-9.6,0,6.376,6.376,0,0,0,1.366,3.934l2.63,3.331-1.245,1.868a.3.3,0,0,0-.05.166v3.3h-1.5v-.638a1.2,1.2,0,0,0,.9-1.162V29.8a1.2,1.2,0,1,0-2.4,0v.126a1.5,1.5,0,1,0-.9,2.844v.63h-.6a.3.3,0,1,0,0,.6h15.3a.3.3,0,1,0,0-.6Zm-5.4,0V30.1h3.9v3.3Zm.147-6.6.873,1.2H74.75l-.873-1.2Zm1.205,2.7-.655-.9h.758l.655.9Zm1.5,0-.655-.9h.758l.655.9Zm-4.205-2.7.873,1.2h-.72l-.036,0-.874-1.2Zm1.309,1.8.655.9h-.758l-.655-.9Zm2.564-.6H76.25l-.873-1.2h.758Zm-8.783-3.638A5.773,5.773,0,0,1,66.989,20.8a4.2,4.2,0,1,1,8.4,0,5.773,5.773,0,0,1-1.237,3.562L72.717,26.18l-.014.02h-.922a.548.548,0,0,0-.242.133l-.8,1.207Zm1.463,5.828L71,28.221v0l.8-1.194L73.889,29.9v3.5h-.9V30.7a1.2,1.2,0,0,0-2.4,0v2.7h-.9Zm1.5,3.209V30.7a.6.6,0,1,1,1.2,0v2.7Zm-4.5-3.6a.6.6,0,1,1,1.2,0v1.8a.6.6,0,0,1-1.064.38,1.5,1.5,0,0,0-.14-1.583.3.3,0,0,0,0-.042Zm-2.1,1.5a.9.9,0,1,1,.9.9A.9.9,0,0,1,64.589,31.3Zm1.2,1.47a1.5,1.5,0,0,0,.658-.316,1.211,1.211,0,0,0,.542.307V33.4h-1.2Z" fill="#3b3b3b"/>
    </g>
  </g>
</svg>
