<svg xmlns="http://www.w3.org/2000/svg" width="26.993" height="14.344" viewBox="0 0 26.993 14.344">
  <path id="Icon_ionic-ios-return-right" data-name="Icon ionic-ios-return-right" d="M4.95,17.339l4.191,4.177a.978.978,0,0,0,.7.288.961.961,0,0,0,.7-.288.985.985,0,0,0,0-1.392l-.007-.007L7.636,17.3H26.009a3.529,3.529,0,0,1,3.516,3.516v3.375a.984.984,0,0,0,1.969,0V20.813a5.5,5.5,0,0,0-5.484-5.484H7.608L10.4,12.5a.978.978,0,0,0,.288-.7.961.961,0,0,0-.288-.7l-.007-.007a1.017,1.017,0,0,0-.689-.274.939.939,0,0,0-.7.288l-4.05,4.036a1.553,1.553,0,0,0-.457,1.1A1.471,1.471,0,0,0,4.95,17.339Z" transform="translate(-4.5 -10.828)" fill="#3b3b3b"/>
</svg>
