<svg xmlns="http://www.w3.org/2000/svg" width="28" height="56" viewBox="0 0 28 56">
  <g id="Coupons" transform="translate(3068 -11683)">
    <rect id="Rectangle_2977" data-name="Rectangle 2977" width="28" height="28" transform="translate(-3068 11683)" fill="none"/>
    <rect id="Rectangle_2978" data-name="Rectangle 2978" width="28" height="28" transform="translate(-3068 11711)" fill="none"/>
    <g id="gift-voucher" transform="translate(-3065 11676)">
      <path id="Path_613" data-name="Path 613" d="M19.743,26.8H2.257A.257.257,0,0,1,2,26.543V23.92a.257.257,0,0,1,.206-.252,2.314,2.314,0,0,0,0-4.536A.257.257,0,0,1,2,18.88V16.257A.257.257,0,0,1,2.257,16H19.743a.257.257,0,0,1,.257.257V18.88a.257.257,0,0,1-.206.252,2.314,2.314,0,0,0,0,4.536A.257.257,0,0,1,20,23.92v2.623A.257.257,0,0,1,19.743,26.8ZM2.514,26.286H19.486V24.122a2.829,2.829,0,0,1,0-5.444V16.514H2.514v2.164a2.829,2.829,0,0,1,0,5.444Z" fill="#fff"/>
      <path id="Path_614" data-name="Path 614" d="M51.264,17.489A.264.264,0,0,1,51,17.225v-.961a.264.264,0,0,1,.528,0v.961A.264.264,0,0,1,51.264,17.489Z" transform="translate(-36.41)" fill="#fff"/>
      <path id="Path_615" data-name="Path 615" d="M51.264,26.58A.264.264,0,0,1,51,26.316v-.961a.264.264,0,1,1,.528,0v.961A.264.264,0,0,1,51.264,26.58Z" transform="translate(-36.41 -6.763)" fill="#fff"/>
      <path id="Path_616" data-name="Path 616" d="M51.264,35.671A.264.264,0,0,1,51,35.407v-.961a.264.264,0,1,1,.528,0v.961A.264.264,0,0,1,51.264,35.671Z" transform="translate(-36.41 -13.527)" fill="#fff"/>
      <path id="Path_617" data-name="Path 617" d="M51.264,44.762A.264.264,0,0,1,51,44.5v-.961a.264.264,0,0,1,.528,0V44.5A.264.264,0,0,1,51.264,44.762Z" transform="translate(-36.41 -20.29)" fill="#fff"/>
      <path id="Path_618" data-name="Path 618" d="M51.264,53.853A.264.264,0,0,1,51,53.589v-.961a.264.264,0,1,1,.528,0v.961A.264.264,0,0,1,51.264,53.853Z" transform="translate(-36.41 -27.053)" fill="#fff"/>
      <path id="Path_619" data-name="Path 619" d="M20.193,32.428a.264.264,0,0,1-.187-.451l4.9-4.9a.264.264,0,1,1,.374.374l-4.9,4.9A.264.264,0,0,1,20.193,32.428Z" transform="translate(-13.372 -8.246)" fill="#fff"/>
      <path id="Path_620" data-name="Path 620" d="M32.982,41.222A1.22,1.22,0,1,1,34.2,40,1.22,1.22,0,0,1,32.982,41.222Zm0-1.913a.692.692,0,1,0,.692.692A.692.692,0,0,0,32.982,39.309Z" transform="translate(-22.141 -16.969)" fill="#fff"/>
      <path id="Path_621" data-name="Path 621" d="M20.22,28.36a1.22,1.22,0,1,1,1.22-1.221,1.22,1.22,0,0,1-1.22,1.221Zm0-1.913a.692.692,0,1,0,.692.692A.692.692,0,0,0,20.22,26.447Z" transform="translate(-12.647 -7.388)" fill="#fff"/>
    </g>
    <g id="gift-voucher-2" data-name="gift-voucher" transform="translate(-3065 11704)">
      <path id="Path_613-2" data-name="Path 613" d="M19.743,26.8H2.257A.257.257,0,0,1,2,26.543V23.92a.257.257,0,0,1,.206-.252,2.314,2.314,0,0,0,0-4.536A.257.257,0,0,1,2,18.88V16.257A.257.257,0,0,1,2.257,16H19.743a.257.257,0,0,1,.257.257V18.88a.257.257,0,0,1-.206.252,2.314,2.314,0,0,0,0,4.536A.257.257,0,0,1,20,23.92v2.623A.257.257,0,0,1,19.743,26.8ZM2.514,26.286H19.486V24.122a2.829,2.829,0,0,1,0-5.444V16.514H2.514v2.164a2.829,2.829,0,0,1,0,5.444Z" fill="#3b3b3b"/>
      <path id="Path_614-2" data-name="Path 614" d="M51.264,17.489A.264.264,0,0,1,51,17.225v-.961a.264.264,0,0,1,.528,0v.961A.264.264,0,0,1,51.264,17.489Z" transform="translate(-36.41)" fill="#3b3b3b"/>
      <path id="Path_615-2" data-name="Path 615" d="M51.264,26.58A.264.264,0,0,1,51,26.316v-.961a.264.264,0,1,1,.528,0v.961A.264.264,0,0,1,51.264,26.58Z" transform="translate(-36.41 -6.763)" fill="#3b3b3b"/>
      <path id="Path_616-2" data-name="Path 616" d="M51.264,35.671A.264.264,0,0,1,51,35.407v-.961a.264.264,0,1,1,.528,0v.961A.264.264,0,0,1,51.264,35.671Z" transform="translate(-36.41 -13.527)" fill="#3b3b3b"/>
      <path id="Path_617-2" data-name="Path 617" d="M51.264,44.762A.264.264,0,0,1,51,44.5v-.961a.264.264,0,0,1,.528,0V44.5A.264.264,0,0,1,51.264,44.762Z" transform="translate(-36.41 -20.29)" fill="#3b3b3b"/>
      <path id="Path_618-2" data-name="Path 618" d="M51.264,53.853A.264.264,0,0,1,51,53.589v-.961a.264.264,0,1,1,.528,0v.961A.264.264,0,0,1,51.264,53.853Z" transform="translate(-36.41 -27.053)" fill="#3b3b3b"/>
      <path id="Path_619-2" data-name="Path 619" d="M20.193,32.428a.264.264,0,0,1-.187-.451l4.9-4.9a.264.264,0,1,1,.374.374l-4.9,4.9A.264.264,0,0,1,20.193,32.428Z" transform="translate(-13.372 -8.246)" fill="#3b3b3b"/>
      <path id="Path_620-2" data-name="Path 620" d="M32.982,41.222A1.22,1.22,0,1,1,34.2,40,1.22,1.22,0,0,1,32.982,41.222Zm0-1.913a.692.692,0,1,0,.692.692A.692.692,0,0,0,32.982,39.309Z" transform="translate(-22.141 -16.969)" fill="#3b3b3b"/>
      <path id="Path_621-2" data-name="Path 621" d="M20.22,28.36a1.22,1.22,0,1,1,1.22-1.221,1.22,1.22,0,0,1-1.22,1.221Zm0-1.913a.692.692,0,1,0,.692.692A.692.692,0,0,0,20.22,26.447Z" transform="translate(-12.647 -7.388)" fill="#3b3b3b"/>
    </g>
  </g>
</svg>
