<svg xmlns="http://www.w3.org/2000/svg" width="28" height="56" viewBox="0 0 28 56">
  <g id="Dashboard" transform="translate(3260 -11683)">
    <rect id="Rectangle_2977" data-name="Rectangle 2977" width="28" height="28" transform="translate(-3260 11683)" fill="none"/>
    <rect id="Rectangle_2978" data-name="Rectangle 2978" width="28" height="28" transform="translate(-3260 11711)" fill="none"/>
    <g id="dashboard-2" data-name="dashboard" transform="translate(-3255 11605.667)">
      <g id="Group_5950" data-name="Group 5950" transform="translate(0 85.333)">
        <g id="Group_5949" data-name="Group 5949">
          <path id="Path_547" data-name="Path 547" d="M239.784,213.443l-4.855,4.268-.019.017a.829.829,0,0,0,.586,1.417.841.841,0,0,0,.605-.262l4.268-4.855a.415.415,0,0,0-.586-.585Z" transform="translate(-226.777 -209.21)" fill="#fff"/>
          <path id="Path_548" data-name="Path 548" d="M9,85.333A9,9,0,0,0,.428,97.072a.375.375,0,0,0,.357.261h16.43a.375.375,0,0,0,.357-.261A9,9,0,0,0,9,85.333Zm7.125,9.375h1.1a8.214,8.214,0,0,1-.287,1.875H1.063a8.214,8.214,0,0,1-.287-1.875h1.1a.375.375,0,0,0,0-.75H.769a8.186,8.186,0,0,1,.912-3.417l.961.555a.375.375,0,0,0,.375-.65l-.958-.554a8.3,8.3,0,0,1,2.5-2.5l.554.959a.375.375,0,1,0,.649-.375l-.555-.961A8.186,8.186,0,0,1,8.625,86.1v1.106a.375.375,0,0,0,.75,0V86.1a8.186,8.186,0,0,1,3.418.912l-.555.961a.375.375,0,1,0,.649.375l.554-.959a8.3,8.3,0,0,1,2.5,2.5l-.958.554a.375.375,0,0,0,.375.65l.961-.555a8.186,8.186,0,0,1,.912,3.417H16.125a.375.375,0,1,0,0,.75Z" transform="translate(0 -85.333)" fill="#fff"/>
        </g>
      </g>
    </g>
    <g id="dashboard-3" data-name="dashboard" transform="translate(-3255 11633.667)">
      <g id="Group_5950-2" data-name="Group 5950" transform="translate(0 85.333)">
        <g id="Group_5949-2" data-name="Group 5949">
          <path id="Path_547-2" data-name="Path 547" d="M239.784,213.443l-4.855,4.268-.019.017a.829.829,0,0,0,.586,1.417.841.841,0,0,0,.605-.262l4.268-4.855a.415.415,0,0,0-.586-.585Z" transform="translate(-226.777 -209.21)" fill="#3b3b3b"/>
          <path id="Path_548-2" data-name="Path 548" d="M9,85.333A9,9,0,0,0,.428,97.072a.375.375,0,0,0,.357.261h16.43a.375.375,0,0,0,.357-.261A9,9,0,0,0,9,85.333Zm7.125,9.375h1.1a8.214,8.214,0,0,1-.287,1.875H1.063a8.214,8.214,0,0,1-.287-1.875h1.1a.375.375,0,0,0,0-.75H.769a8.186,8.186,0,0,1,.912-3.417l.961.555a.375.375,0,0,0,.375-.65l-.958-.554a8.3,8.3,0,0,1,2.5-2.5l.554.959a.375.375,0,1,0,.649-.375l-.555-.961A8.186,8.186,0,0,1,8.625,86.1v1.106a.375.375,0,0,0,.75,0V86.1a8.186,8.186,0,0,1,3.418.912l-.555.961a.375.375,0,1,0,.649.375l.554-.959a8.3,8.3,0,0,1,2.5,2.5l-.958.554a.375.375,0,0,0,.375.65l.961-.555a8.186,8.186,0,0,1,.912,3.417H16.125a.375.375,0,1,0,0,.75Z" transform="translate(0 -85.333)" fill="#3b3b3b"/>
        </g>
      </g>
    </g>
  </g>
</svg>
