<svg xmlns="http://www.w3.org/2000/svg" width="28" height="56" viewBox="0 0 28 56">
  <g id="Group_6143" data-name="Group 6143" transform="translate(3116 -11822)">
    <rect id="Rectangle_2977" data-name="Rectangle 2977" width="28" height="28" transform="translate(-3116 11822)" fill="none"/>
    <rect id="Rectangle_2978" data-name="Rectangle 2978" width="28" height="28" transform="translate(-3116 11850)" fill="none"/>
    <g id="logout" transform="translate(-3111 11826.992)">
      <path id="Path_631" data-name="Path 631" d="M285.1,209.145h-7.2a.568.568,0,1,1,0-1.137h7.2a.568.568,0,1,1,0,1.137Zm0,0" transform="translate(-267.67 -200.693)" fill="#fff"/>
      <path id="Path_632" data-name="Path 632" d="M400.572,134.793a.569.569,0,0,1-.4-.971l2.441-2.441-2.441-2.441a.569.569,0,1,1,.8-.8l2.842,2.842a.569.569,0,0,1,0,.8l-2.842,2.842A.564.564,0,0,1,400.572,134.793Zm0,0" transform="translate(-385.984 -123.492)" fill="#fff"/>
      <path id="Path_633" data-name="Path 633" d="M6.063,18.007a1.577,1.577,0,0,1-.47-.07l-4.562-1.5A1.515,1.515,0,0,1,0,15.008V1.508A1.51,1.51,0,0,1,1.516.008a1.579,1.579,0,0,1,.47.07l4.561,1.5A1.515,1.515,0,0,1,7.579,3.008v13.5a1.509,1.509,0,0,1-1.516,1.5ZM1.516,1.133a.378.378,0,0,0-.379.375v13.5a.39.39,0,0,0,.263.361l4.54,1.5a.416.416,0,0,0,.124.016.378.378,0,0,0,.379-.375V3.008a.39.39,0,0,0-.263-.361l-4.54-1.5a.415.415,0,0,0-.124-.016Zm0,0" transform="translate(0 0)" fill="#fff"/>
      <path id="Path_634" data-name="Path 634" d="M37.279,6.072a.569.569,0,0,1-.568-.568V2.092a.949.949,0,0,0-.947-.948H27.236a.568.568,0,1,1,0-1.137h8.527a2.086,2.086,0,0,1,2.084,2.084V5.5A.569.569,0,0,1,37.279,6.072Zm0,0" transform="translate(-25.721)" fill="#fff"/>
      <path id="Path_635" data-name="Path 635" d="M184.933,283.4H181.9a.568.568,0,1,1,0-1.137h3.032a.949.949,0,0,0,.947-.948v-3.411a.568.568,0,0,1,1.137,0v3.411A2.086,2.086,0,0,1,184.933,283.4Zm0,0" transform="translate(-174.988 -267.67)" fill="#fff"/>
    </g>
    <g id="logout-2" data-name="logout" transform="translate(-3111 11854.992)">
      <path id="Path_631-2" data-name="Path 631" d="M285.1,209.145h-7.2a.568.568,0,1,1,0-1.137h7.2a.568.568,0,1,1,0,1.137Zm0,0" transform="translate(-267.67 -200.693)" fill="#3b3b3b"/>
      <path id="Path_632-2" data-name="Path 632" d="M400.572,134.793a.569.569,0,0,1-.4-.971l2.441-2.441-2.441-2.441a.569.569,0,1,1,.8-.8l2.842,2.842a.569.569,0,0,1,0,.8l-2.842,2.842A.564.564,0,0,1,400.572,134.793Zm0,0" transform="translate(-385.984 -123.492)" fill="#3b3b3b"/>
      <path id="Path_633-2" data-name="Path 633" d="M6.063,18.007a1.577,1.577,0,0,1-.47-.07l-4.562-1.5A1.515,1.515,0,0,1,0,15.008V1.508A1.51,1.51,0,0,1,1.516.008a1.579,1.579,0,0,1,.47.07l4.561,1.5A1.515,1.515,0,0,1,7.579,3.008v13.5a1.509,1.509,0,0,1-1.516,1.5ZM1.516,1.133a.378.378,0,0,0-.379.375v13.5a.39.39,0,0,0,.263.361l4.54,1.5a.416.416,0,0,0,.124.016.378.378,0,0,0,.379-.375V3.008a.39.39,0,0,0-.263-.361l-4.54-1.5a.415.415,0,0,0-.124-.016Zm0,0" transform="translate(0 0)" fill="#3b3b3b"/>
      <path id="Path_634-2" data-name="Path 634" d="M37.279,6.072a.569.569,0,0,1-.568-.568V2.092a.949.949,0,0,0-.947-.948H27.236a.568.568,0,1,1,0-1.137h8.527a2.086,2.086,0,0,1,2.084,2.084V5.5A.569.569,0,0,1,37.279,6.072Zm0,0" transform="translate(-25.721)" fill="#3b3b3b"/>
      <path id="Path_635-2" data-name="Path 635" d="M184.933,283.4H181.9a.568.568,0,1,1,0-1.137h3.032a.949.949,0,0,0,.947-.948v-3.411a.568.568,0,0,1,1.137,0v3.411A2.086,2.086,0,0,1,184.933,283.4Zm0,0" transform="translate(-174.988 -267.67)" fill="#3b3b3b"/>
    </g>
  </g>
</svg>
