<svg xmlns="http://www.w3.org/2000/svg" width="28" height="56" viewBox="0 0 28 56">
  <g id="Membership" transform="translate(3164 -11683)">
    <rect id="Rectangle_2977" data-name="Rectangle 2977" width="28" height="28" transform="translate(-3164 11683)" fill="none"/>
    <rect id="Rectangle_2978" data-name="Rectangle 2978" width="28" height="28" transform="translate(-3164 11711)" fill="none"/>
    <g id="id_card-passport-badge" data-name="id card-passport-badge" transform="translate(-3162 11686)">
      <path id="Path_636" data-name="Path 636" d="M29.955,5a.955.955,0,1,0,.955.955A.955.955,0,0,0,29.955,5Zm0,1.273a.318.318,0,1,1,.318-.318A.318.318,0,0,1,29.955,6.273Z" transform="translate(-18.251 -2.045)" fill="#fff"/>
      <path id="Path_637" data-name="Path 637" d="M30,13h1.273v.637H30Z" transform="translate(-18.933 -7.706)" fill="#fff"/>
      <path id="Path_638" data-name="Path 638" d="M20.406,14.253V6.2a.9.9,0,0,0-.9-.9h-6v-3a.3.3,0,0,0-.3-.3h-3a.3.3,0,0,0-.3.3v3h-6a.9.9,0,0,0-.9.9v9.6a.9.9,0,0,0,.9.9h8.5a4.2,4.2,0,1,0,8-2.451ZM10.5,2.6h2.4V6.5H10.5Zm1.816,13.5H3.9a.3.3,0,0,1-.3-.3V6.2a.3.3,0,0,1,.3-.3h6v.9a.3.3,0,0,0,.3.3h3a.3.3,0,0,0,.3-.3V5.9h6a.3.3,0,0,1,.3.3v7.013a4.2,4.2,0,0,0-7.5,2.59c0,.1.009.2.015.3Zm4.186,3.3a3.6,3.6,0,1,1,3.6-3.6,3.6,3.6,0,0,1-3.6,3.6Z" transform="translate(0)" fill="#fff"/>
      <path id="Path_639" data-name="Path 639" d="M40.807,45.023l-1.139-1.139-.375.375,1.326,1.326a.265.265,0,0,0,.375,0l2.917-2.917-.375-.375Z" transform="translate(-25.353 -28.222)" fill="#fff"/>
      <path id="Path_640" data-name="Path 640" d="M12.412,21H7.318A.318.318,0,0,0,7,21.318v5.093a.318.318,0,0,0,.318.318h5.093a.318.318,0,0,0,.318-.318V21.318A.318.318,0,0,0,12.412,21ZM7.984,26.093a1.908,1.908,0,0,1,3.763,0Zm1.245-2.865a.637.637,0,1,1,.637.637.637.637,0,0,1-.637-.637Zm2.865,1.955a2.559,2.559,0,0,0-1.267-1.127,1.273,1.273,0,1,0-1.923,0,2.559,2.559,0,0,0-1.267,1.127V21.637h4.457Z" transform="translate(-2.727 -13.447)" fill="#fff"/>
      <path id="Path_641" data-name="Path 641" d="M27,22h8v.637H27Z" transform="translate(-16.243 -14.01)" fill="#fff"/>
      <path id="Path_642" data-name="Path 642" d="M27,27h8v.637H27Z" transform="translate(-16.243 -17.513)" fill="#fff"/>
      <path id="Path_643" data-name="Path 643" d="M27,32h3.183v.637H27Z" transform="translate(-16.25 -21.016)" fill="#fff"/>
    </g>
    <g id="id_card-passport-badge-2" data-name="id card-passport-badge" transform="translate(-3162 11714)">
      <path id="Path_636-2" data-name="Path 636" d="M29.955,5a.955.955,0,1,0,.955.955A.955.955,0,0,0,29.955,5Zm0,1.273a.318.318,0,1,1,.318-.318A.318.318,0,0,1,29.955,6.273Z" transform="translate(-18.251 -2.045)" fill="#3b3b3b"/>
      <path id="Path_637-2" data-name="Path 637" d="M30,13h1.273v.637H30Z" transform="translate(-18.933 -7.706)" fill="#3b3b3b"/>
      <path id="Path_638-2" data-name="Path 638" d="M20.406,14.253V6.2a.9.9,0,0,0-.9-.9h-6v-3a.3.3,0,0,0-.3-.3h-3a.3.3,0,0,0-.3.3v3h-6a.9.9,0,0,0-.9.9v9.6a.9.9,0,0,0,.9.9h8.5a4.2,4.2,0,1,0,8-2.451ZM10.5,2.6h2.4V6.5H10.5Zm1.816,13.5H3.9a.3.3,0,0,1-.3-.3V6.2a.3.3,0,0,1,.3-.3h6v.9a.3.3,0,0,0,.3.3h3a.3.3,0,0,0,.3-.3V5.9h6a.3.3,0,0,1,.3.3v7.013a4.2,4.2,0,0,0-7.5,2.59c0,.1.009.2.015.3Zm4.186,3.3a3.6,3.6,0,1,1,3.6-3.6,3.6,3.6,0,0,1-3.6,3.6Z" transform="translate(0)" fill="#3b3b3b"/>
      <path id="Path_639-2" data-name="Path 639" d="M40.807,45.023l-1.139-1.139-.375.375,1.326,1.326a.265.265,0,0,0,.375,0l2.917-2.917-.375-.375Z" transform="translate(-25.353 -28.222)" fill="#3b3b3b"/>
      <path id="Path_640-2" data-name="Path 640" d="M12.412,21H7.318A.318.318,0,0,0,7,21.318v5.093a.318.318,0,0,0,.318.318h5.093a.318.318,0,0,0,.318-.318V21.318A.318.318,0,0,0,12.412,21ZM7.984,26.093a1.908,1.908,0,0,1,3.763,0Zm1.245-2.865a.637.637,0,1,1,.637.637.637.637,0,0,1-.637-.637Zm2.865,1.955a2.559,2.559,0,0,0-1.267-1.127,1.273,1.273,0,1,0-1.923,0,2.559,2.559,0,0,0-1.267,1.127V21.637h4.457Z" transform="translate(-2.727 -13.447)" fill="#3b3b3b"/>
      <path id="Path_641-2" data-name="Path 641" d="M27,22h8v.637H27Z" transform="translate(-16.243 -14.01)" fill="#3b3b3b"/>
      <path id="Path_642-2" data-name="Path 642" d="M27,27h8v.637H27Z" transform="translate(-16.243 -17.513)" fill="#3b3b3b"/>
      <path id="Path_643-2" data-name="Path 643" d="M27,32h3.183v.637H27Z" transform="translate(-16.25 -21.016)" fill="#3b3b3b"/>
    </g>
  </g>
</svg>
