<svg xmlns="http://www.w3.org/2000/svg" width="28" height="56" viewBox="0 0 28 56">
  <g id="Orders" transform="translate(3212 -11683)">
    <rect id="Rectangle_2977" data-name="Rectangle 2977" width="28" height="28" transform="translate(-3212 11683)" fill="none"/>
    <rect id="Rectangle_2978" data-name="Rectangle 2978" width="28" height="28" transform="translate(-3212 11711)" fill="none"/>
    <g id="shopping-cart" transform="translate(-3207 11681.972)">
      <g id="Group_5952" data-name="Group 5952" transform="translate(0 6.028)">
        <g id="Group_5951" data-name="Group 5951" transform="translate(0 0)">
          <path id="Path_549" data-name="Path 549" d="M98.69,350.322a2.037,2.037,0,1,0,2.037,2.037A2.037,2.037,0,0,0,98.69,350.322Zm0,3.168a1.131,1.131,0,1,1,1.131-1.132A1.131,1.131,0,0,1,98.69,353.49Z" transform="translate(-92.876 -336.877)" fill="#fff"/>
          <path id="Path_550" data-name="Path 550" d="M297.221,350.322a2.037,2.037,0,1,0,2.037,2.037A2.037,2.037,0,0,0,297.221,350.322Zm0,3.168a1.131,1.131,0,1,1,1.131-1.132A1.132,1.132,0,0,1,297.221,353.49Z" transform="translate(-283.907 -336.877)" fill="#fff"/>
          <path id="Path_551" data-name="Path 551" d="M17.915,8.738a.528.528,0,0,0-.334-.162L3.988,8.394,3.612,7.282a1.917,1.917,0,0,0-1.8-1.254H.418a.4.4,0,1,0,0,.809h1.4a1.083,1.083,0,0,1,1,.708L5.471,15.29l-.209.465a1.889,1.889,0,0,0,.188,1.759,1.957,1.957,0,0,0,1.566.849h8.122a.4.4,0,1,0,0-.809H7.016A1.073,1.073,0,0,1,6.034,16.1l.167-.364,8.79-.89a2.273,2.273,0,0,0,1.984-1.7l1-4.065A.335.335,0,0,0,17.915,8.738Zm-1.754,4.227a1.406,1.406,0,0,1-1.274,1.072l-8.686.87L4.259,9.2l12.8.182Z" transform="translate(0 -6.028)" fill="#fff"/>
        </g>
      </g>
    </g>
    <g id="shopping-cart-2" data-name="shopping-cart" transform="translate(-3207 11709.972)">
      <g id="Group_5952-2" data-name="Group 5952" transform="translate(0 6.028)">
        <g id="Group_5951-2" data-name="Group 5951" transform="translate(0 0)">
          <path id="Path_549-2" data-name="Path 549" d="M98.69,350.322a2.037,2.037,0,1,0,2.037,2.037A2.037,2.037,0,0,0,98.69,350.322Zm0,3.168a1.131,1.131,0,1,1,1.131-1.132A1.131,1.131,0,0,1,98.69,353.49Z" transform="translate(-92.876 -336.877)" fill="#3b3b3b"/>
          <path id="Path_550-2" data-name="Path 550" d="M297.221,350.322a2.037,2.037,0,1,0,2.037,2.037A2.037,2.037,0,0,0,297.221,350.322Zm0,3.168a1.131,1.131,0,1,1,1.131-1.132A1.132,1.132,0,0,1,297.221,353.49Z" transform="translate(-283.907 -336.877)" fill="#3b3b3b"/>
          <path id="Path_551-2" data-name="Path 551" d="M17.915,8.738a.528.528,0,0,0-.334-.162L3.988,8.394,3.612,7.282a1.917,1.917,0,0,0-1.8-1.254H.418a.4.4,0,1,0,0,.809h1.4a1.083,1.083,0,0,1,1,.708L5.471,15.29l-.209.465a1.889,1.889,0,0,0,.188,1.759,1.957,1.957,0,0,0,1.566.849h8.122a.4.4,0,1,0,0-.809H7.016A1.073,1.073,0,0,1,6.034,16.1l.167-.364,8.79-.89a2.273,2.273,0,0,0,1.984-1.7l1-4.065A.335.335,0,0,0,17.915,8.738Zm-1.754,4.227a1.406,1.406,0,0,1-1.274,1.072l-8.686.87L4.259,9.2l12.8.182Z" transform="translate(0 -6.028)" fill="#3b3b3b"/>
        </g>
      </g>
    </g>
  </g>
</svg>
