<svg xmlns="http://www.w3.org/2000/svg" width="28" height="56" viewBox="0 0 28 56">
  <g id="Password" transform="translate(3164 -11822)">
    <rect id="Rectangle_2977" data-name="Rectangle 2977" width="28" height="28" transform="translate(-3164 11822)" fill="none"/>
    <rect id="Rectangle_2978" data-name="Rectangle 2978" width="28" height="28" transform="translate(-3164 11850)" fill="none"/>
    <g id="password-2" data-name="password" transform="translate(-3159 11773.228)">
      <path id="Path_627" data-name="Path 627" d="M17.384,55.772H.616A.617.617,0,0,0,0,56.388V67.768a.617.617,0,0,0,.616.616H3.27a.264.264,0,1,0,0-.528H.616a.088.088,0,0,1-.088-.088V59.787H9.718a.264.264,0,0,0,0-.528H.528v-2.87A.088.088,0,0,1,.616,56.3H17.384a.088.088,0,0,1,.088.088v2.87H11.052a.264.264,0,1,0,0,.528h6.419v7.981a.088.088,0,0,1-.088.088H16.77V64.765a.793.793,0,0,0-.73-.79V62.924a2.229,2.229,0,0,0-2.2-2.251H12.688a2.231,2.231,0,0,0-2.194,2.079.406.406,0,0,0,.4.436h.778a.406.406,0,0,0,.4-.355.637.637,0,0,1,.61-.576h1.151a.644.644,0,0,1,.616.667v1.049h-3.7a.793.793,0,0,0-.792.792v3.091H4.586a.264.264,0,0,0,0,.528H9.96v.674a.793.793,0,0,0,.792.792h5.225a.793.793,0,0,0,.792-.792v-.674h.614A.617.617,0,0,0,18,67.768V56.388A.617.617,0,0,0,17.384,55.772Zm-3.545,5.957H12.688a1.16,1.16,0,0,0-1.116.931h-.537A1.7,1.7,0,0,1,12.688,61.2h1.151a1.7,1.7,0,0,1,1.673,1.723v1.049h-.528V62.924A1.172,1.172,0,0,0,13.839,61.729Zm2.4,7.329a.264.264,0,0,1-.264.264H10.753a.264.264,0,0,1-.264-.264V64.765a.264.264,0,0,1,.264-.264h5.225a.264.264,0,0,1,.264.264Z" transform="translate(0 0)" fill="#fff"/>
      <circle id="Ellipse_40" data-name="Ellipse 40" cx="0.524" cy="0.524" r="0.524" transform="translate(1.463 57.281)" fill="#fff"/>
      <circle id="Ellipse_41" data-name="Ellipse 41" cx="0.524" cy="0.524" r="0.524" transform="translate(3 57.281)" fill="#fff"/>
      <circle id="Ellipse_42" data-name="Ellipse 42" cx="0.524" cy="0.524" r="0.524" transform="translate(4.565 57.281)" fill="#fff"/>
      <path id="Path_628" data-name="Path 628" d="M54.037,219.215a.269.269,0,1,0,.269-.466l-1.1-.636,1.1-.636a.269.269,0,0,0-.269-.466l-1.1.636v-1.272a.269.269,0,0,0-.538,0v1.272l-1.1-.636a.269.269,0,0,0-.269.466l1.1.636-1.1.636a.269.269,0,1,0,.269.466l1.1-.636v1.272a.269.269,0,1,0,.538,0v-1.272Z" transform="translate(-49.072 -154.738)" fill="#fff"/>
      <path id="Path_629" data-name="Path 629" d="M169.909,219.116a.269.269,0,0,0,.367.1l1.1-.636v1.272a.269.269,0,1,0,.538,0v-1.272l1.1.636a.269.269,0,1,0,.269-.466l-1.1-.636,1.1-.636a.269.269,0,0,0-.269-.466l-1.1.636v-1.272a.269.269,0,1,0-.538,0v1.272l-1.1-.636a.269.269,0,0,0-.269.466l1.1.636-1.1.636A.269.269,0,0,0,169.909,219.116Z" transform="translate(-163.927 -154.737)" fill="#fff"/>
      <path id="Path_630" data-name="Path 630" d="M347.783,324.484a1.218,1.218,0,1,0-1.61,1.827v.632a.449.449,0,0,0,.448.448h.655a.449.449,0,0,0,.448-.448v-.632a1.218,1.218,0,0,0,.058-1.827Zm-.429,1.434a.414.414,0,0,0-.167.331v.6h-.476v-.6a.415.415,0,0,0-.167-.331.68.68,0,0,1-.274-.59.688.688,0,0,1,.635-.635.68.68,0,0,1,.449,1.225Z" transform="translate(-333.61 -259.03)" fill="#fff"/>
    </g>
    <g id="password-3" data-name="password" transform="translate(-3159 11801.228)">
      <path id="Path_627-2" data-name="Path 627" d="M17.384,55.772H.616A.617.617,0,0,0,0,56.388V67.768a.617.617,0,0,0,.616.616H3.27a.264.264,0,1,0,0-.528H.616a.088.088,0,0,1-.088-.088V59.787H9.718a.264.264,0,0,0,0-.528H.528v-2.87A.088.088,0,0,1,.616,56.3H17.384a.088.088,0,0,1,.088.088v2.87H11.052a.264.264,0,1,0,0,.528h6.419v7.981a.088.088,0,0,1-.088.088H16.77V64.765a.793.793,0,0,0-.73-.79V62.924a2.229,2.229,0,0,0-2.2-2.251H12.688a2.231,2.231,0,0,0-2.194,2.079.406.406,0,0,0,.4.436h.778a.406.406,0,0,0,.4-.355.637.637,0,0,1,.61-.576h1.151a.644.644,0,0,1,.616.667v1.049h-3.7a.793.793,0,0,0-.792.792v3.091H4.586a.264.264,0,0,0,0,.528H9.96v.674a.793.793,0,0,0,.792.792h5.225a.793.793,0,0,0,.792-.792v-.674h.614A.617.617,0,0,0,18,67.768V56.388A.617.617,0,0,0,17.384,55.772Zm-3.545,5.957H12.688a1.16,1.16,0,0,0-1.116.931h-.537A1.7,1.7,0,0,1,12.688,61.2h1.151a1.7,1.7,0,0,1,1.673,1.723v1.049h-.528V62.924A1.172,1.172,0,0,0,13.839,61.729Zm2.4,7.329a.264.264,0,0,1-.264.264H10.753a.264.264,0,0,1-.264-.264V64.765a.264.264,0,0,1,.264-.264h5.225a.264.264,0,0,1,.264.264Z" transform="translate(0 0)" fill="#3b3b3b"/>
      <circle id="Ellipse_40-2" data-name="Ellipse 40" cx="0.524" cy="0.524" r="0.524" transform="translate(1.463 57.281)" fill="#3b3b3b"/>
      <circle id="Ellipse_41-2" data-name="Ellipse 41" cx="0.524" cy="0.524" r="0.524" transform="translate(3 57.281)" fill="#3b3b3b"/>
      <circle id="Ellipse_42-2" data-name="Ellipse 42" cx="0.524" cy="0.524" r="0.524" transform="translate(4.565 57.281)" fill="#3b3b3b"/>
      <path id="Path_628-2" data-name="Path 628" d="M54.037,219.215a.269.269,0,1,0,.269-.466l-1.1-.636,1.1-.636a.269.269,0,0,0-.269-.466l-1.1.636v-1.272a.269.269,0,0,0-.538,0v1.272l-1.1-.636a.269.269,0,0,0-.269.466l1.1.636-1.1.636a.269.269,0,1,0,.269.466l1.1-.636v1.272a.269.269,0,1,0,.538,0v-1.272Z" transform="translate(-49.072 -154.738)" fill="#3b3b3b"/>
      <path id="Path_629-2" data-name="Path 629" d="M169.909,219.116a.269.269,0,0,0,.367.1l1.1-.636v1.272a.269.269,0,1,0,.538,0v-1.272l1.1.636a.269.269,0,1,0,.269-.466l-1.1-.636,1.1-.636a.269.269,0,0,0-.269-.466l-1.1.636v-1.272a.269.269,0,1,0-.538,0v1.272l-1.1-.636a.269.269,0,0,0-.269.466l1.1.636-1.1.636A.269.269,0,0,0,169.909,219.116Z" transform="translate(-163.927 -154.737)" fill="#3b3b3b"/>
      <path id="Path_630-2" data-name="Path 630" d="M347.783,324.484a1.218,1.218,0,1,0-1.61,1.827v.632a.449.449,0,0,0,.448.448h.655a.449.449,0,0,0,.448-.448v-.632a1.218,1.218,0,0,0,.058-1.827Zm-.429,1.434a.414.414,0,0,0-.167.331v.6h-.476v-.6a.415.415,0,0,0-.167-.331.68.68,0,0,1-.274-.59.688.688,0,0,1,.635-.635.68.68,0,0,1,.449,1.225Z" transform="translate(-333.61 -259.03)" fill="#3b3b3b"/>
    </g>
  </g>
</svg>
