<svg xmlns="http://www.w3.org/2000/svg" width="20" height="19.465" viewBox="0 0 20 19.465">
  <g id="shopping-cart" transform="translate(0 -6.028)">
    <g id="Group_5952" data-name="Group 5952" transform="translate(0 6.028)">
      <g id="Group_5951" data-name="Group 5951" transform="translate(0 0)">
        <path id="Path_549" data-name="Path 549" d="M98.885,350.322a2.232,2.232,0,1,0,2.232,2.232A2.232,2.232,0,0,0,98.885,350.322Zm0,3.471a1.24,1.24,0,1,1,1.24-1.24A1.24,1.24,0,0,1,98.885,353.793Z" transform="translate(-92.439 -335.321)" fill="#3b3b3b"/>
        <path id="Path_550" data-name="Path 550" d="M297.416,350.322a2.232,2.232,0,1,0,2.232,2.232A2.232,2.232,0,0,0,297.416,350.322Zm0,3.471a1.24,1.24,0,1,1,1.24-1.24A1.24,1.24,0,0,1,297.416,353.793Z" transform="translate(-282.55 -335.321)" fill="#3b3b3b"/>
        <path id="Path_551" data-name="Path 551" d="M19.905,9.057a.586.586,0,0,0-.371-.181l-15.1-.2L4.014,7.429a2.131,2.131,0,0,0-2-1.4H.464a.452.452,0,1,0,0,.9H2.018a1.2,1.2,0,0,1,1.114.791l2.946,8.656-.232.52a2.121,2.121,0,0,0,.209,1.966,2.171,2.171,0,0,0,1.74.949H16.82a.452.452,0,1,0,0-.9H7.8a1.19,1.19,0,0,1-.974-.542A1.215,1.215,0,0,1,6.7,17.283l.186-.407,9.767-.994a2.53,2.53,0,0,0,2.2-1.9l1.114-4.543A.377.377,0,0,0,19.905,9.057ZM17.957,13.78a1.565,1.565,0,0,1-1.415,1.2L6.89,15.95,4.733,9.576l14.221.2Z" transform="translate(0 -6.028)" fill="#3b3b3b"/>
      </g>
    </g>
  </g>
</svg>
